<mxfile host="Electron" modified="2023-09-29T16:37:45.190Z" agent="Mozilla/5.0 (Windows NT 10.0; Win64; x64) AppleWebKit/537.36 (KHTML, like Gecko) draw.io/21.8.2 Chrome/114.0.5735.289 Electron/25.8.1 Safari/537.36" etag="R1f4UShltD1SUq4ZmsC_" version="21.8.2" type="device">
  <diagram name="Page-1" id="EWEq34pycF-QkON53sIb">
    <mxGraphModel dx="1434" dy="836" grid="1" gridSize="10" guides="1" tooltips="1" connect="1" arrows="1" fold="1" page="1" pageScale="1" pageWidth="827" pageHeight="1169" math="0" shadow="0">
      <root>
        <mxCell id="0" />
        <mxCell id="1" parent="0" />
        <mxCell id="uKUCcOc-4RGfZC8i2mpF-1" value="" style="strokeWidth=1;shadow=0;dashed=0;align=center;html=1;shape=mxgraph.mockup.containers.browserWindow;rSize=0;strokeColor=#666666;strokeColor2=#008cff;strokeColor3=#c4c4c4;mainText=,;recursiveResize=0;" parent="1" vertex="1">
          <mxGeometry x="29" y="460" width="710" height="960" as="geometry" />
        </mxCell>
        <mxCell id="uKUCcOc-4RGfZC8i2mpF-2" value="Page 1" style="strokeWidth=1;shadow=0;dashed=0;align=center;html=1;shape=mxgraph.mockup.containers.anchor;fontSize=17;fontColor=#666666;align=left;whiteSpace=wrap;" parent="uKUCcOc-4RGfZC8i2mpF-1" vertex="1">
          <mxGeometry x="60" y="12" width="110" height="26" as="geometry" />
        </mxCell>
        <mxCell id="uKUCcOc-4RGfZC8i2mpF-3" value="https://www.draw.io" style="strokeWidth=1;shadow=0;dashed=0;align=center;html=1;shape=mxgraph.mockup.containers.anchor;rSize=0;fontSize=17;fontColor=#666666;align=left;" parent="uKUCcOc-4RGfZC8i2mpF-1" vertex="1">
          <mxGeometry x="130" y="60" width="250" height="26" as="geometry" />
        </mxCell>
        <mxCell id="uKUCcOc-4RGfZC8i2mpF-25" value="TJM" style="text;html=1;strokeColor=none;fillColor=none;align=center;verticalAlign=middle;whiteSpace=wrap;rounded=0;" parent="uKUCcOc-4RGfZC8i2mpF-1" vertex="1">
          <mxGeometry x="338" y="320" width="80" height="30" as="geometry" />
        </mxCell>
        <mxCell id="uKUCcOc-4RGfZC8i2mpF-28" value="Extras" style="text;html=1;strokeColor=none;fillColor=none;align=center;verticalAlign=middle;whiteSpace=wrap;rounded=0;" parent="uKUCcOc-4RGfZC8i2mpF-1" vertex="1">
          <mxGeometry x="528" y="320" width="80" height="30" as="geometry" />
        </mxCell>
        <mxCell id="uKUCcOc-4RGfZC8i2mpF-29" value="&lt;br&gt;100" style="strokeWidth=1;shadow=0;dashed=0;align=center;html=1;shape=mxgraph.mockup.forms.spinner;strokeColor=#999999;spinLayout=right;spinStyle=normal;adjStyle=triangle;fillColor=#aaddff;fontSize=17;fontColor=#666666;mainText=;html=1;overflow=fill;" parent="uKUCcOc-4RGfZC8i2mpF-1" vertex="1">
          <mxGeometry x="493" y="250" width="150" height="60" as="geometry" />
        </mxCell>
        <mxCell id="uKUCcOc-4RGfZC8i2mpF-31" value="&lt;br&gt;100" style="strokeWidth=1;shadow=0;dashed=0;align=center;html=1;shape=mxgraph.mockup.forms.spinner;strokeColor=#999999;spinLayout=right;spinStyle=normal;adjStyle=triangle;fillColor=#aaddff;fontSize=17;fontColor=#666666;mainText=;html=1;overflow=fill;" parent="uKUCcOc-4RGfZC8i2mpF-1" vertex="1">
          <mxGeometry x="303" y="250" width="150" height="60" as="geometry" />
        </mxCell>
        <mxCell id="uKUCcOc-4RGfZC8i2mpF-32" value="Taux Horaire" style="text;html=1;strokeColor=none;fillColor=none;align=center;verticalAlign=middle;whiteSpace=wrap;rounded=0;" parent="uKUCcOc-4RGfZC8i2mpF-1" vertex="1">
          <mxGeometry x="148" y="490" width="80" height="30" as="geometry" />
        </mxCell>
        <mxCell id="uKUCcOc-4RGfZC8i2mpF-34" value="TJM" style="text;html=1;strokeColor=none;fillColor=none;align=center;verticalAlign=middle;whiteSpace=wrap;rounded=0;" parent="uKUCcOc-4RGfZC8i2mpF-1" vertex="1">
          <mxGeometry x="335.5" y="490" width="85" height="30" as="geometry" />
        </mxCell>
        <mxCell id="uKUCcOc-4RGfZC8i2mpF-35" value="Extras" style="text;html=1;strokeColor=none;fillColor=none;align=center;verticalAlign=middle;whiteSpace=wrap;rounded=0;" parent="uKUCcOc-4RGfZC8i2mpF-1" vertex="1">
          <mxGeometry x="528" y="490" width="80" height="30" as="geometry" />
        </mxCell>
        <mxCell id="uKUCcOc-4RGfZC8i2mpF-36" value="&lt;br&gt;100" style="strokeWidth=1;shadow=0;dashed=0;align=center;html=1;shape=mxgraph.mockup.forms.spinner;strokeColor=#999999;spinLayout=right;spinStyle=normal;adjStyle=triangle;fillColor=#aaddff;fontSize=17;fontColor=#666666;mainText=;html=1;overflow=fill;" parent="uKUCcOc-4RGfZC8i2mpF-1" vertex="1">
          <mxGeometry x="493" y="420" width="150" height="60" as="geometry" />
        </mxCell>
        <mxCell id="uKUCcOc-4RGfZC8i2mpF-37" value="&lt;br&gt;100" style="strokeWidth=1;shadow=0;dashed=0;align=center;html=1;shape=mxgraph.mockup.forms.spinner;strokeColor=#999999;spinLayout=right;spinStyle=normal;adjStyle=triangle;fillColor=#aaddff;fontSize=17;fontColor=#666666;mainText=;html=1;overflow=fill;" parent="uKUCcOc-4RGfZC8i2mpF-1" vertex="1">
          <mxGeometry x="305.5" y="420" width="150" height="60" as="geometry" />
        </mxCell>
        <mxCell id="uKUCcOc-4RGfZC8i2mpF-42" value="&lt;br&gt;100" style="strokeWidth=1;shadow=0;dashed=0;align=center;html=1;shape=mxgraph.mockup.forms.spinner;strokeColor=#999999;spinLayout=right;spinStyle=normal;adjStyle=triangle;fillColor=#aaddff;fontSize=17;fontColor=#666666;mainText=;html=1;overflow=fill;" parent="uKUCcOc-4RGfZC8i2mpF-1" vertex="1">
          <mxGeometry x="113" y="570" width="150" height="60" as="geometry" />
        </mxCell>
        <mxCell id="uKUCcOc-4RGfZC8i2mpF-43" value="Taux Horaire&amp;nbsp;" style="text;html=1;strokeColor=none;fillColor=none;align=center;verticalAlign=middle;whiteSpace=wrap;rounded=0;" parent="uKUCcOc-4RGfZC8i2mpF-1" vertex="1">
          <mxGeometry x="143" y="650" width="80" height="30" as="geometry" />
        </mxCell>
        <mxCell id="uKUCcOc-4RGfZC8i2mpF-44" value="CHARGES" style="text;html=1;strokeColor=none;fillColor=none;align=center;verticalAlign=middle;whiteSpace=wrap;rounded=0;" parent="uKUCcOc-4RGfZC8i2mpF-1" vertex="1">
          <mxGeometry x="73" y="529" width="60" height="30" as="geometry" />
        </mxCell>
        <mxCell id="uKUCcOc-4RGfZC8i2mpF-45" value="QUANTITE" style="text;html=1;strokeColor=none;fillColor=none;align=center;verticalAlign=middle;whiteSpace=wrap;rounded=0;" parent="uKUCcOc-4RGfZC8i2mpF-1" vertex="1">
          <mxGeometry x="73" y="380" width="60" height="30" as="geometry" />
        </mxCell>
        <mxCell id="uKUCcOc-4RGfZC8i2mpF-46" value="" style="shape=mxgraph.signs.travel.euro;html=1;pointerEvents=1;fillColor=#000000;strokeColor=none;verticalLabelPosition=bottom;verticalAlign=top;align=center;sketch=0;" parent="uKUCcOc-4RGfZC8i2mpF-1" vertex="1">
          <mxGeometry x="58" y="190" width="50" height="50" as="geometry" />
        </mxCell>
        <mxCell id="uKUCcOc-4RGfZC8i2mpF-47" value="&lt;br&gt;100" style="strokeWidth=1;shadow=0;dashed=0;align=center;html=1;shape=mxgraph.mockup.forms.spinner;strokeColor=#999999;spinLayout=right;spinStyle=normal;adjStyle=triangle;fillColor=#aaddff;fontSize=17;fontColor=#666666;mainText=;html=1;overflow=fill;" parent="uKUCcOc-4RGfZC8i2mpF-1" vertex="1">
          <mxGeometry x="113" y="250" width="150" height="60" as="geometry" />
        </mxCell>
        <mxCell id="uKUCcOc-4RGfZC8i2mpF-48" value="Taux Horaire&amp;nbsp;" style="text;html=1;strokeColor=none;fillColor=none;align=center;verticalAlign=middle;whiteSpace=wrap;rounded=0;" parent="uKUCcOc-4RGfZC8i2mpF-1" vertex="1">
          <mxGeometry x="148" y="320" width="80" height="30" as="geometry" />
        </mxCell>
        <mxCell id="uKUCcOc-4RGfZC8i2mpF-49" value="&lt;br&gt;100" style="strokeWidth=1;shadow=0;dashed=0;align=center;html=1;shape=mxgraph.mockup.forms.spinner;strokeColor=#999999;spinLayout=right;spinStyle=normal;adjStyle=triangle;fillColor=#aaddff;fontSize=17;fontColor=#666666;mainText=;html=1;overflow=fill;" parent="uKUCcOc-4RGfZC8i2mpF-1" vertex="1">
          <mxGeometry x="108" y="420" width="150" height="60" as="geometry" />
        </mxCell>
        <mxCell id="uKUCcOc-4RGfZC8i2mpF-50" value="Calculer" style="strokeWidth=1;shadow=0;dashed=0;align=center;html=1;shape=mxgraph.mockup.buttons.button;strokeColor=#666666;fontColor=#ffffff;mainText=;buttonStyle=round;fontSize=17;fontStyle=1;fillColor=#4D4D4D;whiteSpace=wrap;" parent="uKUCcOc-4RGfZC8i2mpF-1" vertex="1">
          <mxGeometry x="310.5" y="680" width="150" height="30" as="geometry" />
        </mxCell>
        <mxCell id="uKUCcOc-4RGfZC8i2mpF-51" value="&lt;font style=&quot;font-size: 16px;&quot;&gt;BRUT €&lt;/font&gt;" style="rounded=0;whiteSpace=wrap;html=1;fillColor=#f8cecc;strokeColor=#b85450;" parent="uKUCcOc-4RGfZC8i2mpF-1" vertex="1">
          <mxGeometry x="108" y="820" width="120" height="60" as="geometry" />
        </mxCell>
        <mxCell id="uKUCcOc-4RGfZC8i2mpF-53" value="&lt;span style=&quot;font-size: 16px;&quot;&gt;NET €&lt;/span&gt;" style="rounded=0;whiteSpace=wrap;html=1;fillColor=#d5e8d4;strokeColor=#82b366;" parent="uKUCcOc-4RGfZC8i2mpF-1" vertex="1">
          <mxGeometry x="532" y="820" width="120" height="60" as="geometry" />
        </mxCell>
        <mxCell id="uKUCcOc-4RGfZC8i2mpF-54" value="&lt;font style=&quot;font-size: 17px;&quot;&gt;- XX €&lt;br&gt;Charges&lt;/font&gt;" style="text;html=1;strokeColor=none;fillColor=none;align=center;verticalAlign=middle;whiteSpace=wrap;rounded=0;" parent="uKUCcOc-4RGfZC8i2mpF-1" vertex="1">
          <mxGeometry x="330.5" y="826" width="105" height="45" as="geometry" />
        </mxCell>
        <mxCell id="uKUCcOc-4RGfZC8i2mpF-8" value="&lt;font style=&quot;font-size: 14px;&quot;&gt;Taux horaire&lt;/font&gt;" style="shape=document;whiteSpace=wrap;html=1;boundedLbl=1;fillColor=#fff2cc;strokeColor=#d6b656;" parent="1" vertex="1">
          <mxGeometry x="39" y="90" width="120" height="80" as="geometry" />
        </mxCell>
        <mxCell id="uKUCcOc-4RGfZC8i2mpF-9" value="&lt;font style=&quot;font-size: 14px;&quot;&gt;TJM&lt;br&gt;Taux journalier Moyen&lt;/font&gt;" style="shape=document;whiteSpace=wrap;html=1;boundedLbl=1;fillColor=#d5e8d4;strokeColor=#82b366;" parent="1" vertex="1">
          <mxGeometry x="219" y="90" width="120" height="80" as="geometry" />
        </mxCell>
        <mxCell id="uKUCcOc-4RGfZC8i2mpF-10" value="" style="shape=mxgraph.signs.travel.euro;html=1;pointerEvents=1;fillColor=#000000;strokeColor=none;verticalLabelPosition=bottom;verticalAlign=top;align=center;" parent="1" vertex="1">
          <mxGeometry x="159" y="10" width="50" height="60" as="geometry" />
        </mxCell>
        <mxCell id="uKUCcOc-4RGfZC8i2mpF-11" value="" style="endArrow=classic;html=1;rounded=0;exitX=0.525;exitY=0.895;exitDx=0;exitDy=0;exitPerimeter=0;" parent="1" source="uKUCcOc-4RGfZC8i2mpF-9" edge="1">
          <mxGeometry width="50" height="50" relative="1" as="geometry">
            <mxPoint x="278.5" y="180" as="sourcePoint" />
            <mxPoint x="282" y="230" as="targetPoint" />
          </mxGeometry>
        </mxCell>
        <mxCell id="uKUCcOc-4RGfZC8i2mpF-12" value="TJM * nombre de jours" style="text;html=1;strokeColor=none;fillColor=none;align=center;verticalAlign=middle;whiteSpace=wrap;rounded=0;" parent="1" vertex="1">
          <mxGeometry x="229" y="240" width="100" height="30" as="geometry" />
        </mxCell>
        <mxCell id="uKUCcOc-4RGfZC8i2mpF-13" value="" style="endArrow=classic;html=1;rounded=0;" parent="1" edge="1">
          <mxGeometry width="50" height="50" relative="1" as="geometry">
            <mxPoint x="98.5" y="170" as="sourcePoint" />
            <mxPoint x="98.5" y="230" as="targetPoint" />
            <Array as="points">
              <mxPoint x="98.5" y="160" />
            </Array>
          </mxGeometry>
        </mxCell>
        <mxCell id="uKUCcOc-4RGfZC8i2mpF-14" value="TH * nombre d&#39;heures&lt;br&gt;" style="text;html=1;strokeColor=none;fillColor=none;align=center;verticalAlign=middle;whiteSpace=wrap;rounded=0;" parent="1" vertex="1">
          <mxGeometry x="39" y="240" width="100" height="30" as="geometry" />
        </mxCell>
        <mxCell id="uKUCcOc-4RGfZC8i2mpF-16" value="" style="ellipse;shape=cloud;whiteSpace=wrap;html=1;" parent="1" vertex="1">
          <mxGeometry x="439" y="90" width="120" height="80" as="geometry" />
        </mxCell>
        <mxCell id="uKUCcOc-4RGfZC8i2mpF-17" value="Extras" style="text;html=1;strokeColor=none;fillColor=none;align=center;verticalAlign=middle;whiteSpace=wrap;rounded=0;" parent="1" vertex="1">
          <mxGeometry x="474" y="115" width="60" height="30" as="geometry" />
        </mxCell>
        <mxCell id="uKUCcOc-4RGfZC8i2mpF-18" value="" style="endArrow=classic;html=1;rounded=0;exitX=0.55;exitY=0.95;exitDx=0;exitDy=0;exitPerimeter=0;" parent="1" source="uKUCcOc-4RGfZC8i2mpF-16" edge="1">
          <mxGeometry width="50" height="50" relative="1" as="geometry">
            <mxPoint x="349.5" y="190" as="sourcePoint" />
            <mxPoint x="505" y="240" as="targetPoint" />
          </mxGeometry>
        </mxCell>
        <mxCell id="uKUCcOc-4RGfZC8i2mpF-20" value="5.5&lt;br&gt;11&lt;br&gt;16.5&lt;br&gt;22" style="text;html=1;strokeColor=none;fillColor=none;align=center;verticalAlign=middle;whiteSpace=wrap;rounded=0;" parent="1" vertex="1">
          <mxGeometry x="729" y="230" width="60" height="90" as="geometry" />
        </mxCell>
        <mxCell id="uKUCcOc-4RGfZC8i2mpF-21" value="Extra" style="text;html=1;strokeColor=none;fillColor=none;align=center;verticalAlign=middle;whiteSpace=wrap;rounded=0;" parent="1" vertex="1">
          <mxGeometry x="474" y="240" width="60" height="30" as="geometry" />
        </mxCell>
        <mxCell id="uKUCcOc-4RGfZC8i2mpF-22" value="= Chiffre d&#39;Affaires Brut en €" style="text;html=1;strokeColor=none;fillColor=none;align=center;verticalAlign=middle;whiteSpace=wrap;rounded=0;" parent="1" vertex="1">
          <mxGeometry x="189" y="290" width="290" height="60" as="geometry" />
        </mxCell>
        <mxCell id="uKUCcOc-4RGfZC8i2mpF-23" value="CHARGES" style="rounded=0;whiteSpace=wrap;html=1;" parent="1" vertex="1">
          <mxGeometry x="589" y="250" width="120" height="60" as="geometry" />
        </mxCell>
        <mxCell id="uKUCcOc-4RGfZC8i2mpF-24" value="&lt;font style=&quot;font-size: 16px;&quot;&gt;CA -&amp;nbsp; X% de charges&amp;nbsp;&lt;/font&gt;" style="ellipse;shape=cloud;whiteSpace=wrap;html=1;" parent="1" vertex="1">
          <mxGeometry x="239" y="360" width="290" height="80" as="geometry" />
        </mxCell>
        <mxCell id="dvW8wzSoGvaJE_RyAOsk-5" value="HEADER" style="shape=cube;whiteSpace=wrap;html=1;boundedLbl=1;backgroundOutline=1;darkOpacity=0.05;darkOpacity2=0.1;" vertex="1" parent="1">
          <mxGeometry x="760" y="580" width="120" height="80" as="geometry" />
        </mxCell>
        <mxCell id="dvW8wzSoGvaJE_RyAOsk-6" value="ARGENT" style="shape=cube;whiteSpace=wrap;html=1;boundedLbl=1;backgroundOutline=1;darkOpacity=0.05;darkOpacity2=0.1;" vertex="1" parent="1">
          <mxGeometry x="770" y="670" width="120" height="140" as="geometry" />
        </mxCell>
        <mxCell id="dvW8wzSoGvaJE_RyAOsk-7" value="QUANTITE" style="shape=cube;whiteSpace=wrap;html=1;boundedLbl=1;backgroundOutline=1;darkOpacity=0.05;darkOpacity2=0.1;" vertex="1" parent="1">
          <mxGeometry x="770" y="820" width="120" height="140" as="geometry" />
        </mxCell>
        <mxCell id="dvW8wzSoGvaJE_RyAOsk-8" value="CHARGE" style="shape=cube;whiteSpace=wrap;html=1;boundedLbl=1;backgroundOutline=1;darkOpacity=0.05;darkOpacity2=0.1;" vertex="1" parent="1">
          <mxGeometry x="770" y="970" width="120" height="140" as="geometry" />
        </mxCell>
        <mxCell id="dvW8wzSoGvaJE_RyAOsk-9" value="" style="shape=cube;whiteSpace=wrap;html=1;boundedLbl=1;backgroundOutline=1;darkOpacity=0.05;darkOpacity2=0.1;" vertex="1" parent="1">
          <mxGeometry x="780" y="1270" width="120" height="80" as="geometry" />
        </mxCell>
        <mxCell id="dvW8wzSoGvaJE_RyAOsk-10" value="CALCULER" style="shape=cube;whiteSpace=wrap;html=1;boundedLbl=1;backgroundOutline=1;darkOpacity=0.05;darkOpacity2=0.1;" vertex="1" parent="1">
          <mxGeometry x="780" y="1130" width="120" height="80" as="geometry" />
        </mxCell>
      </root>
    </mxGraphModel>
  </diagram>
</mxfile>
